<mxfile host="app.diagrams.net" modified="2021-05-21T11:00:37.590Z" agent="5.0 (Windows NT 10.0; Win64; x64) AppleWebKit/537.36 (KHTML, like Gecko) Chrome/90.0.4430.212 Safari/537.36" etag="V3JMBlsEE0Zm8y4pQinf" version="14.6.13" type="github">
  <diagram id="ABAjfgM-PkcEst5m_lNS" name="Page-1">
    <mxGraphModel dx="868" dy="492" grid="1" gridSize="10" guides="1" tooltips="1" connect="1" arrows="1" fold="1" page="1" pageScale="1" pageWidth="827" pageHeight="1169" math="0" shadow="0">
      <root>
        <mxCell id="0" />
        <mxCell id="1" parent="0" />
        <mxCell id="TYUY7jg5Jtpk5KwOoAZZ-2" value="Respond Arduino" style="shape=umlLifeline;participant=umlBoundary;perimeter=lifelinePerimeter;whiteSpace=wrap;html=1;container=1;collapsible=0;recursiveResize=0;verticalAlign=top;spacingTop=36;outlineConnect=0;" vertex="1" parent="1">
          <mxGeometry x="630" y="100" width="50" height="300" as="geometry" />
        </mxCell>
        <mxCell id="TYUY7jg5Jtpk5KwOoAZZ-3" value="Sistem terkoneksi tegangan" style="shape=umlLifeline;participant=umlBoundary;perimeter=lifelinePerimeter;whiteSpace=wrap;html=1;container=1;collapsible=0;recursiveResize=0;verticalAlign=top;spacingTop=36;outlineConnect=0;" vertex="1" parent="1">
          <mxGeometry x="320" y="100" width="50" height="310" as="geometry" />
        </mxCell>
        <mxCell id="TYUY7jg5Jtpk5KwOoAZZ-5" value="Sensor membaca suhu" style="shape=umlLifeline;participant=umlControl;perimeter=lifelinePerimeter;whiteSpace=wrap;html=1;container=1;collapsible=0;recursiveResize=0;verticalAlign=top;spacingTop=36;outlineConnect=0;" vertex="1" parent="1">
          <mxGeometry x="490" y="100" width="40" height="310" as="geometry" />
        </mxCell>
        <mxCell id="TYUY7jg5Jtpk5KwOoAZZ-7" value="User" style="shape=umlLifeline;participant=umlActor;perimeter=lifelinePerimeter;whiteSpace=wrap;html=1;container=1;collapsible=0;recursiveResize=0;verticalAlign=top;spacingTop=36;outlineConnect=0;" vertex="1" parent="1">
          <mxGeometry x="110" y="110" width="20" height="300" as="geometry" />
        </mxCell>
        <mxCell id="TYUY7jg5Jtpk5KwOoAZZ-8" value="" style="html=1;points=[];perimeter=orthogonalPerimeter;" vertex="1" parent="1">
          <mxGeometry x="340" y="215" width="10" height="80" as="geometry" />
        </mxCell>
        <mxCell id="TYUY7jg5Jtpk5KwOoAZZ-9" value="Koneksi perangkat ke sumber tegangan" style="html=1;verticalAlign=bottom;startArrow=oval;endArrow=block;startSize=8;" edge="1" target="TYUY7jg5Jtpk5KwOoAZZ-8" parent="1" source="TYUY7jg5Jtpk5KwOoAZZ-7">
          <mxGeometry relative="1" as="geometry">
            <mxPoint x="280" y="215" as="sourcePoint" />
            <Array as="points">
              <mxPoint x="310" y="230" />
            </Array>
          </mxGeometry>
        </mxCell>
        <mxCell id="TYUY7jg5Jtpk5KwOoAZZ-10" value="" style="html=1;points=[];perimeter=orthogonalPerimeter;" vertex="1" parent="1">
          <mxGeometry x="505" y="230" width="10" height="80" as="geometry" />
        </mxCell>
        <mxCell id="TYUY7jg5Jtpk5KwOoAZZ-11" value="setSensorOn" style="html=1;verticalAlign=bottom;endArrow=block;exitX=1.1;exitY=0.363;exitDx=0;exitDy=0;exitPerimeter=0;" edge="1" parent="1" source="TYUY7jg5Jtpk5KwOoAZZ-8" target="TYUY7jg5Jtpk5KwOoAZZ-10">
          <mxGeometry width="80" relative="1" as="geometry">
            <mxPoint x="370" y="240" as="sourcePoint" />
            <mxPoint x="450" y="240" as="targetPoint" />
          </mxGeometry>
        </mxCell>
        <mxCell id="TYUY7jg5Jtpk5KwOoAZZ-12" value="" style="html=1;points=[];perimeter=orthogonalPerimeter;" vertex="1" parent="1">
          <mxGeometry x="650" y="210" width="10" height="150" as="geometry" />
        </mxCell>
        <mxCell id="TYUY7jg5Jtpk5KwOoAZZ-14" value="setArduinoRead" style="html=1;verticalAlign=bottom;endArrow=block;entryX=0;entryY=0.187;entryDx=0;entryDy=0;entryPerimeter=0;" edge="1" parent="1" target="TYUY7jg5Jtpk5KwOoAZZ-12">
          <mxGeometry width="80" relative="1" as="geometry">
            <mxPoint x="520" y="241" as="sourcePoint" />
            <mxPoint x="450" y="240" as="targetPoint" />
          </mxGeometry>
        </mxCell>
        <mxCell id="TYUY7jg5Jtpk5KwOoAZZ-16" value="" style="html=1;points=[];perimeter=orthogonalPerimeter;" vertex="1" parent="1">
          <mxGeometry x="340" y="320" width="10" height="80" as="geometry" />
        </mxCell>
        <mxCell id="TYUY7jg5Jtpk5KwOoAZZ-18" value="setMotorOn" style="html=1;verticalAlign=bottom;endArrow=open;dashed=1;endSize=8;strokeColor=#FF3333;exitX=-0.4;exitY=0.893;exitDx=0;exitDy=0;exitPerimeter=0;entryX=1.4;entryY=0.288;entryDx=0;entryDy=0;entryPerimeter=0;" edge="1" parent="1" source="TYUY7jg5Jtpk5KwOoAZZ-12" target="TYUY7jg5Jtpk5KwOoAZZ-16">
          <mxGeometry relative="1" as="geometry">
            <mxPoint x="450" y="240" as="sourcePoint" />
            <mxPoint x="370" y="240" as="targetPoint" />
          </mxGeometry>
        </mxCell>
      </root>
    </mxGraphModel>
  </diagram>
</mxfile>
